<svg xmlns="http://www.w3.org/2000/svg" width="453.333" height="446.667" preserveAspectRatio="xMidYMid meet" version="1.0" viewBox="0 0 340 335"><g fill="#000" stroke="none"><path d="M1435 3281 c-476 -87 -854 -336 -1125 -740 -56 -84 -151 -285 -184 -388 -58 -188 -71 -272 -70 -493 0 -184 3 -218 27 -331 71 -333 207 -595 431 -828 257 -266 574 -422 977 -481 74 -11 173 -20 221 -20 282 0 652 107 901 261 320 199 564 505 676 849 141 431 115 876 -75 1266 -217 447 -657 784 -1169 896 -134 30 -472 35 -610 9z m328 -345 c18 -7 40 -24 48 -37 15 -22 146 -341 242 -586 l40 -102 -99 -104 c-55 -58 -102 -103 -105 -102 -3 2 -43 105 -89 229 -46 125 -86 226 -89 226 -7 0 -24 -46 -122 -332 l-72 -208 -473 0 c-310 0 -482 4 -501 11 -41 15 -72 48 -83 88 -8 30 -6 43 13 81 40 80 37 80 473 80 l381 0 118 308 c157 409 164 424 206 445 42 20 70 21 112 3z m1157 -619 c0 -8 -172 -180 -382 -383 -425 -409 -724 -699 -779 -756 -22 -24 -45 -38 -60 -38 -19 0 -89 63 -292 265 -148 146 -265 270 -262 275 4 6 74 10 175 10 l169 0 102 -105 c57 -58 106 -105 110 -105 4 0 69 62 145 138 77 75 238 232 358 347 121 116 256 245 300 287 l81 77 168 1 c133 0 167 -3 167 -13z m-502 -924 c6 -32 38 -190 72 -352 68 -335 72 -376 35 -420 -30 -35 -84 -55 -129 -48 -17 3 -125 57 -241 119 -314 171 -335 182 -335 190 0 4 46 54 103 112 l102 105 95 -53 c52 -29 97 -52 98 -51 2 2 -6 49 -17 106 -27 132 -27 138 12 179 47 50 178 170 186 170 4 0 13 -26 19 -57z m-1295 -54 c133 -123 129 -114 106 -233 -11 -55 -18 -103 -17 -108 2 -4 41 15 87 42 46 28 87 49 90 49 3 -1 52 -50 109 -109 l103 -107 -93 -51 c-51 -27 -169 -91 -262 -141 -209 -114 -236 -122 -299 -92 -37 18 -49 30 -63 67 l-17 45 79 360 c43 197 82 359 85 359 3 0 45 -36 92 -81z" transform="translate(0.000000,335.000000) scale(0.100000,-0.100000)"/></g></svg>